<svg width="225.2268859863281" height="117.37045539102864" viewBox="0 0 349.99999999999994 182.39234275677757" class="css-1j8o68f"><defs id="SvgjsDefs7159"></defs><g id="SvgjsG7160" featurekey="symbolFeature-0" transform="matrix(-1.6387157454088026,0,0,1.6387157454088026,256.9347667613099,-11.933128164337376)" fill="#008bb5"><path xmlns="http://www.w3.org/2000/svg" d="M50,7.282c-1.56,0-3.027,0.607-4.13,1.711s-1.711,2.57-1.711,4.131c0,1.56,0.607,3.027,1.711,4.13s2.57,1.711,4.13,1.711  s3.028-0.608,4.131-1.711c1.104-1.104,1.711-2.57,1.711-4.13c0-1.561-0.607-3.027-1.711-4.131C53.027,7.89,51.56,7.282,50,7.282z"></path><path xmlns="http://www.w3.org/2000/svg" d="M64.309,72.568c1.104,1.104,2.57,1.712,4.131,1.712s3.027-0.607,4.13-1.711c1.104-1.104,1.711-2.57,1.711-4.131  s-0.607-3.027-1.711-4.131s-2.571-1.711-4.131-1.711c-1.561,0-3.027,0.607-4.131,1.711s-1.711,2.569-1.711,4.13  S63.205,71.465,64.309,72.568z"></path><path xmlns="http://www.w3.org/2000/svg" d="M35.692,27.431c-1.104-1.103-2.57-1.711-4.13-1.711c-1.561,0-3.028,0.608-4.131,1.711c-1.103,1.103-1.71,2.57-1.71,4.13  s0.608,3.027,1.711,4.13c1.104,1.104,2.571,1.711,4.131,1.711c1.56,0,3.026-0.607,4.129-1.71c1.104-1.104,1.711-2.571,1.711-4.131  C37.403,30.001,36.796,28.534,35.692,27.431z"></path><path xmlns="http://www.w3.org/2000/svg" d="M44.455,44.456c0.239-0.239,0.494-0.454,0.757-0.657l-7.449-7.449c-0.204,0.263-0.418,0.518-0.657,0.757  s-0.494,0.454-0.757,0.657l7.449,7.449C44.001,44.95,44.216,44.694,44.455,44.456z"></path><path xmlns="http://www.w3.org/2000/svg" d="M13.124,44.158c-1.561,0-3.028,0.607-4.131,1.711c-1.103,1.104-1.71,2.57-1.71,4.131c0,1.561,0.607,3.028,1.71,4.13  c1.104,1.104,2.571,1.712,4.132,1.712c1.56,0,3.026-0.608,4.13-1.711c2.277-2.277,2.278-5.984,0-8.263  C16.152,44.765,14.685,44.158,13.124,44.158z"></path><path xmlns="http://www.w3.org/2000/svg" d="M26.017,37.105c-0.239-0.239-0.454-0.494-0.657-0.757l-7.448,7.448c0.263,0.203,0.518,0.418,0.757,0.657  c0.24,0.24,0.454,0.496,0.657,0.757l7.448-7.448C26.511,37.559,26.256,37.344,26.017,37.105z"></path><path xmlns="http://www.w3.org/2000/svg" d="M62.894,37.105c-0.239-0.239-0.454-0.494-0.657-0.757l-7.449,7.448c0.263,0.204,0.518,0.418,0.757,0.657  s0.453,0.494,0.657,0.757l7.449-7.448C63.388,37.559,63.132,37.344,62.894,37.105z"></path><path xmlns="http://www.w3.org/2000/svg" d="M81.331,44.455c0.239-0.239,0.494-0.454,0.757-0.657l-7.448-7.448c-0.204,0.263-0.418,0.518-0.657,0.757  s-0.494,0.454-0.757,0.657l7.449,7.449C80.877,44.95,81.091,44.695,81.331,44.455z"></path><path xmlns="http://www.w3.org/2000/svg" d="M91.008,45.87c-1.104-1.104-2.571-1.712-4.132-1.712s-3.027,0.608-4.131,1.711c-2.277,2.278-2.276,5.985,0.001,8.262  c1.104,1.104,2.57,1.711,4.131,1.711s3.027-0.607,4.131-1.71C93.285,51.854,93.285,48.147,91.008,45.87z"></path><path xmlns="http://www.w3.org/2000/svg" d="M72.568,27.43c-1.104-1.103-2.569-1.71-4.13-1.71s-3.027,0.608-4.131,1.711s-1.711,2.57-1.711,4.13  c0,1.56,0.607,3.027,1.711,4.13s2.57,1.711,4.131,1.711s3.027-0.608,4.13-1.711c1.104-1.104,1.711-2.57,1.711-4.13  C74.279,30.001,73.672,28.534,72.568,27.43z"></path><path xmlns="http://www.w3.org/2000/svg" d="M50,44.158c-1.56,0-3.027,0.608-4.131,1.712c-1.103,1.103-1.711,2.57-1.711,4.13s0.607,3.027,1.711,4.13  s2.57,1.711,4.131,1.711c1.56,0,3.026-0.607,4.13-1.71c1.104-1.104,1.712-2.57,1.712-4.131c0-1.561-0.608-3.028-1.712-4.132  C53.026,44.765,51.561,44.158,50,44.158z"></path><path xmlns="http://www.w3.org/2000/svg" d="M31.563,62.596c-1.561,0-3.027,0.608-4.131,1.712c-1.104,1.104-1.711,2.57-1.711,4.131c0,1.56,0.608,3.026,1.711,4.13  c1.104,1.104,2.571,1.711,4.131,1.711c1.56,0,3.027-0.607,4.13-1.711s1.711-2.57,1.711-4.131s-0.607-3.027-1.711-4.131  C34.589,63.204,33.123,62.596,31.563,62.596z"></path><path xmlns="http://www.w3.org/2000/svg" d="M50,81.035c-1.561,0-3.027,0.607-4.131,1.71c-2.278,2.277-2.277,5.984,0,8.263c1.104,1.103,2.571,1.711,4.131,1.711  s3.027-0.608,4.131-1.711c2.278-2.278,2.278-5.984,0-8.263C53.028,81.643,51.561,81.035,50,81.035z"></path></g><g id="SvgjsG7161" featurekey="nameFeature-0" transform="matrix(0.7514207728322813,0,0,0.7514207728322813,-1.5028419039699084,152.09505455905264)" fill="#393e46"><path d="M31.32 25.36 c0 2.76 -0.64 5.28 -1.88 7.56 c-1.28 2.28 -3.04 4.08 -5.28 5.4 c-2.28 1.32 -4.76 2 -7.56 2 c-2.04 0 -3.96 -0.4 -5.8 -1.16 c-1.8 -0.76 -3.36 -1.8 -4.64 -3.16 c-1.28 -1.28 -2.28 -2.84 -3.04 -4.68 c-0.72 -1.84 -1.12 -3.76 -1.12 -5.8 c0 -2.76 0.64 -5.28 1.92 -7.56 c1.24 -2.28 3 -4.12 5.28 -5.44 c2.24 -1.32 4.76 -1.96 7.52 -1.96 c2.04 0 3.96 0.36 5.8 1.12 c1.8 0.8 3.36 1.84 4.64 3.12 c1.28 1.36 2.32 2.92 3.04 4.72 c0.76 1.84 1.12 3.76 1.12 5.84 z M28.16 25.52 c0 -3.28 -1.2 -6.32 -3.2 -8.52 s-5 -3.6 -8.36 -3.6 c-2.16 0 -4.12 0.56 -5.88 1.6 c-1.76 1.12 -3.12 2.56 -4.08 4.36 c-0.96 1.84 -1.44 3.84 -1.44 6 c0 3.24 1.2 6.32 3.2 8.48 c2 2.2 5 3.6 8.32 3.6 c2.16 0 4.12 -0.56 5.88 -1.64 c1.8 -1.04 3.16 -2.52 4.12 -4.32 s1.44 -3.8 1.44 -5.96 z M86.536 10.84 l4.4 0 l0 29.16 l-3.04 0 l0 -25 l0 0 l-10.84 25 l-2.76 0 l-10.76 -24.8 l0 0 l0 24.8 l-3.04 0 l0 -29.16 l4.36 0 l10.88 25 z M142.952 10.84 l3 0 l0 29.16 l-3.32 0 l-17.4 -24.8 l0 24.8 l-3.04 0 l0 -29.16 l3.56 0 l17.2 24.52 l0 -24.52 z M177.208 40 l0 -29.16 l3.08 0 l0 29.16 l-3.08 0 z M265.8 10.84 l3 0 l0 29.16 l-3.32 0 l-17.4 -24.8 l0 24.8 l-3.04 0 l0 -29.16 l3.56 0 l17.2 24.52 l0 -24.52 z M300.05600000000004 40 l0 -29.16 l18.24 0 l0 2.84 l-15.16 0 l0 10.08 l13.88 0 l0 2.84 l-13.88 0 l0 10.56 l15.32 0 l0 2.84 l-18.4 0 z M366.632 40 l-9.48 -12.76 l-9.4 12.76 l-3.6 0 l11.2 -14.92 l-10.68 -14.24 l3.56 0 l9 12 l8.92 -12 l3.56 0 l-10.68 14.2 l11.16 14.96 l-3.56 0 z M416.128 10.84 l3.08 0 l0 17.76 c0 3.68 -1 6.56 -2.88 8.6 c-1.92 2.04 -4.64 3.08 -8.12 3.08 c-3.44 0 -6.16 -1.04 -8.04 -3.12 c-1.92 -2.08 -2.88 -4.84 -2.88 -8.36 l0 -17.96 l3.04 0 l0 17.8 c0 3.08 0.88 5.44 2.32 6.76 c1.48 1.36 3.36 2 5.72 2 c2.48 0 4.4 -0.72 5.76 -2.24 c1.32 -1.52 2 -3.6 2 -6.36 l0 -17.96 z M458.10400000000004 40.28 c-2.76 0 -5.4 -1.04 -7.12 -2.56 c-1.8 -1.56 -2.96 -3.64 -3.2 -5.68 l2.88 -0.8 c0.32 1.72 1.2 3.16 2.64 4.36 c1.4 1.2 3 1.8 4.8 1.8 c1.68 0 3.24 -0.4 4.48 -1.28 c1.24 -0.84 2.04 -2.28 2.04 -4.04 c0 -2.04 -1.08 -3.36 -2.44 -4.16 c-0.96 -0.56 -1.8 -0.8 -2.76 -1 l-3.84 -0.76 c-0.8 -0.16 -1.64 -0.44 -2.56 -0.84 c-0.92 -0.44 -1.72 -0.96 -2.4 -1.64 c-1.36 -1.32 -2.04 -3 -2.04 -5.04 c0 -1.6 0.44 -3.04 1.32 -4.28 c0.88 -1.28 2 -2.2 3.4 -2.88 c1.4 -0.64 2.88 -0.96 4.52 -0.96 c6.28 0 9.04 3.88 9.64 7 l-2.8 0.88 c-0.48 -2.08 -2.36 -5.04 -6.88 -5.04 c-3.12 -0.08 -6.16 2.12 -6.12 5.16 c0 2.24 1.4 4.04 4.24 4.6 l3.68 0.72 c2.48 0.48 4.4 1.32 5.68 2.56 c0.88 0.8 1.52 1.72 1.92 2.68 c0.4 1 0.6 1.88 0.6 2.68 c0.04 5.12 -4.28 8.64 -9.68 8.52 z"></path></g></svg>
