<svg xmlns="http://www.w3.org/2000/svg" viewBox="0 0 1440 320"><path fill="#edf2f4" fill-opacity="1" d="M0,256L18.5,234.7C36.9,213,74,171,111,149.3C147.7,128,185,128,222,144C258.5,160,295,192,332,186.7C369.2,181,406,139,443,133.3C480,128,517,160,554,181.3C590.8,203,628,213,665,218.7C701.5,224,738,224,775,218.7C812.3,213,849,203,886,213.3C923.1,224,960,256,997,272C1033.8,288,1071,288,1108,293.3C1144.6,299,1182,309,1218,266.7C1255.4,224,1292,128,1329,117.3C1366.2,107,1403,181,1422,218.7L1440,256L1440,320L1421.5,320C1403.1,320,1366,320,1329,320C1292.3,320,1255,320,1218,320C1181.5,320,1145,320,1108,320C1070.8,320,1034,320,997,320C960,320,923,320,886,320C849.2,320,812,320,775,320C738.5,320,702,320,665,320C627.7,320,591,320,554,320C516.9,320,480,320,443,320C406.2,320,369,320,332,320C295.4,320,258,320,222,320C184.6,320,148,320,111,320C73.8,320,37,320,18,320L0,320Z"></path></svg>
