<svg width="252" height="86" viewBox="0 0 252 86" fill="none" xmlns="http://www.w3.org/2000/svg">
<path d="M32.64 85.576C27.52 85.576 22.912 84.424 18.816 82.12C14.784 79.752 11.584 76.552 9.216 72.52C6.912 68.424 5.76 63.816 5.76 58.696C5.76 53.576 6.912 49 9.216 44.968C11.584 40.936 14.784 37.768 18.816 35.464C22.912 33.096 27.52 31.912 32.64 31.912C37.248 31.912 41.376 32.904 45.024 34.888C48.736 36.872 51.616 39.528 53.664 42.856V12.904C53.664 12.008 53.92 11.304 54.432 10.792C55.008 10.28 55.712 10.024 56.544 10.024C57.44 10.024 58.144 10.28 58.656 10.792C59.168 11.304 59.424 12.008 59.424 12.904V59.272C59.36 64.264 58.144 68.744 55.776 72.712C53.408 76.68 50.208 79.816 46.176 82.12C42.208 84.424 37.696 85.576 32.64 85.576ZM32.64 80.2C36.672 80.2 40.256 79.272 43.392 77.416C46.592 75.496 49.088 72.936 50.88 69.736C52.736 66.472 53.664 62.792 53.664 58.696C53.664 54.6 52.736 50.952 50.88 47.752C49.088 44.552 46.592 42.024 43.392 40.168C40.256 38.248 36.672 37.288 32.64 37.288C28.672 37.288 25.088 38.248 21.888 40.168C18.688 42.024 16.16 44.552 14.304 47.752C12.448 50.952 11.52 54.6 11.52 58.696C11.52 62.792 12.448 66.472 14.304 69.736C16.16 72.936 18.688 75.496 21.888 77.416C25.088 79.272 28.672 80.2 32.64 80.2ZM148.991 85C148.159 85 147.455 84.744 146.879 84.232C146.367 83.656 146.111 82.952 146.111 82.12V54.376C146.111 49.448 144.799 45.416 142.175 42.28C139.615 39.144 136.255 37.576 132.095 37.576C127.679 37.576 124.063 39.048 121.247 41.992C118.495 44.872 117.183 48.776 117.311 53.704H111.551C111.679 49.288 112.639 45.448 114.431 42.184C116.223 38.92 118.655 36.392 121.727 34.6C124.799 32.744 128.255 31.816 132.095 31.816C135.999 31.816 139.423 32.776 142.367 34.696C145.311 36.616 147.615 39.272 149.279 42.664C151.007 46.056 151.871 49.96 151.871 54.376V82.12C151.871 82.952 151.615 83.656 151.103 84.232C150.591 84.744 149.887 85 148.991 85ZM79.5825 85C78.7505 85 78.0465 84.744 77.4705 84.232C76.9585 83.656 76.7025 82.952 76.7025 82.12V35.368C76.7025 34.472 76.9585 33.768 77.4705 33.256C78.0465 32.744 78.7505 32.488 79.5825 32.488C80.4785 32.488 81.1825 32.744 81.6945 33.256C82.2065 33.768 82.4625 34.472 82.4625 35.368V82.12C82.4625 82.952 82.2065 83.656 81.6945 84.232C81.1825 84.744 80.4785 85 79.5825 85ZM114.431 85C113.599 85 112.895 84.744 112.319 84.232C111.807 83.656 111.551 82.952 111.551 82.12V54.376C111.551 49.448 110.239 45.416 107.615 42.28C105.055 39.144 101.695 37.576 97.5345 37.576C93.1185 37.576 89.5025 38.984 86.6865 41.8C83.8705 44.616 82.4625 48.264 82.4625 52.744H77.6625C77.8545 48.648 78.8145 45.032 80.5425 41.896C82.3345 38.76 84.7025 36.296 87.6465 34.504C90.5905 32.712 93.8865 31.816 97.5345 31.816C101.439 31.816 104.863 32.776 107.807 34.696C110.751 36.616 113.055 39.272 114.719 42.664C116.447 46.056 117.311 49.96 117.311 54.376V82.12C117.311 82.952 117.055 83.656 116.542 84.232C116.031 84.744 115.327 85 114.431 85Z" fill="#E6E9E9"/>
<path d="M170 0H194V85H170V0Z" fill="#3DFF94"/>
<path d="M199 0H223V85H199V0Z" fill="#33C67A"/>
<path d="M228 0H252V85H228V0Z" fill="#298E5F"/>
</svg>
